<svg xmlns="http://www.w3.org/2000/svg" xmlns:xlink="http://www.w3.org/1999/xlink" version="1.1" width="283.3783786570268" height="112.78378399277003" xml:space="preserve"><rect id="backgroundrect" width="100%" height="100%" x="0" y="0" fill="none" stroke="none" class="selected" style=""/>








































<g class="currentLayer" style=""><title>Layer 1</title><g id="PathID_2" opacity="1">
</g><g id="PathID_4" opacity="1">
</g><g id="PathID_1" opacity="1" class="">
<path style="fill:#E5A41D;fill-opacity:1" d="M91.98017913543703,22.756994016723624 L103.773981635437,33.44777901672363 L117.43442913543703,44.64764901672362 Q112.68296913543702,53.81117901672363 101.39825163543702,56.01721401672364 Q93.76197663543701,57.459621516723615 79.33790163543702,55.67782401672363 Q72.63494913543701,54.74450151672363 67.459251635437,52.96270401672362 L59.653281635437,49.99304151672362 Q50.15036163543701,46.514294016723625 32.92631913543701,46.174904016723616 Q29.702114135437,46.174904016723616 34.79296413543702,42.44161401672363 Q39.28988163543701,39.21740901672362 45.65344413543701,36.24774651672362 Q54.56243163543701,32.09021901672362 69.49559163543702,32.25991401672363 L77.04701913543701,32.42960901672363 Q79.33790163543702,32.34476151672362 77.55610413543701,31.24174401672363 Q63.64111413543702,22.92668901672363 49.047344135437015,27.508454016723633 Q43.78679913543701,29.205404016723634 37.59293163543701,32.68415151672363 L28.344554135437022,38.62347651672363 Q19.774956635437007,43.96886901672363 10.272036635437019,39.21740901672362 Q26.647604135437007,22.58729901672362 38.18686413543702,15.460109016723635 Q54.05334663543701,5.617799016723637 67.20470913543701,8.67230901672363 Q78.743969135437,11.30258151672362 91.98017913543703,22.756994016723624 " stroke-width="0" id="svg_1"/>
</g><g id="PathID_6" opacity="1">
</g><g id="PathID_3" opacity="1" class="">
<path style="fill:#E5811D;fill-opacity:1" d="M96.23105272140504,70.55213074279786 Q99.45525772140505,70.63697824279785 94.36440772140503,74.28542074279784 Q89.86749022140503,77.59447324279785 83.50392772140503,80.56413574279784 Q74.51009272140504,84.80651074279785 59.66178022140505,84.55196824279784 L52.110352721405036,84.38227324279785 Q49.81947022140503,84.46712074279785 51.51642022140504,85.48529074279784 Q65.43141022140503,93.88519324279784 80.11002772140503,89.21858074279785 Q86.38874272140504,87.35193574279785 100.72797022140503,78.10355824279785 Q109.38241522140504,72.67331824279785 118.80048772140503,77.59447324279785 Q102.42492022140505,94.30943074279784 90.97050772140506,101.35177324279783 Q75.10402522140504,111.10923574279784 61.952662721405034,108.05472574279784 Q50.41340272140505,105.50930074279785 37.177192721405035,93.97004074279783 L25.38339022140505,83.27925574279786 L11.722942721405047,72.16423324279785 Q16.389555221405033,62.915855742797845 27.75912022140504,60.70982074279783 Q35.480242721405034,59.35226074279785 49.73462272140503,61.134058242797835 Q56.522422721405036,61.98253324279784 61.61327272140505,63.76433074279785 L69.41924272140506,66.73399324279785 Q79.00701022140504,70.38243574279784 96.23105272140504,70.55213074279786 " stroke-width="0" id="svg_2"/>
</g><g id="PathID_8" opacity="1">
</g><g id="PathID_5" opacity="1" class="">
<path style="fill:#FF6C08;fill-opacity:1" d="M149.60951852798462,82.914471244812 L157.45326852798462,82.914471244812 L158.35951852798462,85.805096244812 L157.64076852798462,86.023846244812 Q157.31264352798462,85.148846244812 156.89076852798462,84.695721244812 Q156.48451852798462,84.226971244812 155.98451852798462,84.039471244812 Q155.31264352798462,83.805096244812 154.23451852798462,83.805096244812 L152.21889352798462,83.805096244812 L151.31264352798462,87.789471244812 L152.56264352798462,87.789471244812 Q153.35951852798462,87.789471244812 153.73451852798462,87.617596244812 Q154.10951852798462,87.445721244812 154.37514352798462,87.070721244812 Q154.64076852798462,86.680096244812 154.78139352798462,85.945721244812 L155.54701852798462,85.945721244812 L154.54701852798462,90.383221244812 L153.78139352798462,90.383221244812 Q153.89076852798462,89.789471244812 153.89076852798462,89.555096244812 Q153.89076852798462,89.242596244812 153.71889352798462,89.008221244812 Q153.56264352798462,88.758221244812 153.29701852798462,88.648846244812 Q153.04701852798462,88.539471244812 152.34389352798462,88.539471244812 L151.14076852798462,88.539471244812 L150.25014352798462,92.461346244812 L150.20326852798462,92.742596244812 Q150.20326852798462,92.883221244812 150.32826852798462,92.961346244812 Q150.40639352798462,92.992596244812 150.81264352798462,92.992596244812 L152.54701852798462,92.992596244812 Q153.82826852798462,92.992596244812 154.62514352798462,92.726971244812 Q155.43764352798462,92.445721244812 156.00014352798462,91.930096244812 Q156.56264352798462,91.398846244812 157.29701852798462,90.101971244812 L157.98451852798462,90.383221244812 L156.32826852798462,93.820721244812 L147.14076852798462,93.820721244812 L147.29701852798462,93.164471244812 Q148.09389352798462,93.164471244812 148.31264352798462,93.086346244812 Q148.54701852798462,93.008221244812 148.67201852798462,92.836346244812 Q148.87514352798462,92.555096244812 148.98451852798462,92.023846244812 L150.64076852798462,84.773846244812 Q150.73451852798462,84.383221244812 150.73451852798462,84.226971244812 Q150.73451852798462,83.851971244812 150.50014352798462,83.711346244812 Q150.26576852798462,83.570721244812 149.71889352798462,83.570721244812 L149.46889352798462,83.570721244812 L149.60951852798462,82.914471244812 " stroke-width="0" id="svg_3"/>
</g><g id="PathID_10" opacity="1">
</g><g id="PathID_7" opacity="1" class="">
<path style="fill:#FF6C08;fill-opacity:1" d="M162.81889352798464,82.914471244812 L166.19389352798464,82.914471244812 L168.58451852798464,91.195721244812 L170.05326852798464,84.633221244812 Q170.13139352798464,84.305096244812 170.13139352798464,84.164471244812 Q170.13139352798464,83.883221244812 169.89701852798464,83.726971244812 Q169.72514352798464,83.633221244812 169.20951852798464,83.633221244812 L168.86576852798464,83.633221244812 L169.00639352798464,82.914471244812 L172.81889352798464,82.914471244812 L172.66264352798464,83.633221244812 L172.36576852798464,83.633221244812 Q171.81889352798464,83.633221244812 171.58451852798464,83.726971244812 Q171.35014352798464,83.820721244812 171.20951852798464,84.023846244812 Q171.08451852798464,84.211346244812 170.94389352798464,84.789471244812 L168.89701852798464,93.820721244812 L167.99076852798464,93.820721244812 L165.03764352798464,83.726971244812 L163.13139352798464,92.070721244812 Q163.06889352798464,92.351971244812 163.06889352798464,92.539471244812 Q163.06889352798464,92.742596244812 163.16264352798464,92.898846244812 Q163.27201852798464,93.039471244812 163.42826852798464,93.101971244812 Q163.60014352798464,93.164471244812 164.08451852798464,93.164471244812 L164.35014352798464,93.164471244812 L164.19389352798464,93.820721244812 L160.33451852798464,93.820721244812 L160.47514352798464,93.164471244812 L160.81889352798464,93.164471244812 Q161.35014352798464,93.164471244812 161.56889352798464,93.070721244812 Q161.78764352798464,92.976971244812 161.94389352798464,92.758221244812 Q162.10014352798464,92.523846244812 162.22514352798464,91.945721244812 L163.86576852798464,84.867596244812 Q163.94389352798464,84.508221244812 163.94389352798464,84.258221244812 Q163.94389352798464,83.914471244812 163.70951852798464,83.742596244812 Q163.55326852798464,83.633221244812 163.05326852798464,83.633221244812 L162.67826852798464,83.633221244812 L162.81889352798464,82.914471244812 " stroke-width="0" id="svg_4"/>
</g><g id="PathID_12" opacity="1">
</g><g id="PathID_9" opacity="1" class="">
<path style="fill:#FF6C08;fill-opacity:1" d="M184.19389352798464,82.570721244812 L184.60014352798464,85.805096244812 L183.83451852798464,85.945721244812 Q183.66264352798464,85.055096244812 183.31889352798464,84.555096244812 Q182.99076852798464,84.055096244812 182.50639352798464,83.836346244812 Q182.03764352798464,83.617596244812 181.05326852798464,83.617596244812 Q180.80326852798464,83.617596244812 180.70951852798464,83.695721244812 Q180.61576852798464,83.773846244812 180.56889352798464,84.070721244812 L178.72514352798464,92.148846244812 Q178.66264352798464,92.430096244812 178.66264352798464,92.617596244812 Q178.66264352798464,92.805096244812 178.77201852798464,92.945721244812 Q178.88139352798464,93.086346244812 179.08451852798464,93.133221244812 Q179.28764352798464,93.164471244812 179.92826852798464,93.164471244812 L179.78764352798464,93.820721244812 L175.50639352798464,93.820721244812 L175.66264352798464,93.164471244812 Q176.20951852798464,93.164471244812 176.47514352798464,93.133221244812 Q176.74076852798464,93.086346244812 176.88139352798464,92.976971244812 Q177.03764352798464,92.867596244812 177.13139352798464,92.680096244812 Q177.28764352798464,92.351971244812 177.31889352798464,92.164471244812 L179.14701852798464,84.180096244812 Q179.19389352798464,83.945721244812 179.19389352798464,83.820721244812 Q179.19389352798464,83.726971244812 179.10014352798464,83.680096244812 Q179.02201852798464,83.617596244812 178.72514352798464,83.617596244812 Q177.95951852798464,83.617596244812 177.41264352798464,83.867596244812 Q176.88139352798464,84.117596244812 176.30326852798464,84.726971244812 Q175.94389352798464,85.117596244812 175.35014352798464,86.055096244812 L174.70951852798464,85.695721244812 L176.39701852798464,82.570721244812 L176.94389352798464,82.570721244812 L176.94389352798464,82.914471244812 L183.30326852798464,82.914471244812 L183.61576852798464,82.570721244812 L184.19389352798464,82.570721244812 " stroke-width="0" id="svg_5"/>
</g><g id="PathID_14" opacity="1">
</g><g id="PathID_11" opacity="1" class="">
<path style="fill:#FF6C08;fill-opacity:1" d="M187.5595185279846,82.914471244812 L195.4032685279846,82.914471244812 L196.3095185279846,85.805096244812 L195.5907685279846,86.023846244812 Q195.2626435279846,85.148846244812 194.8407685279846,84.695721244812 Q194.4345185279846,84.226971244812 193.9345185279846,84.039471244812 Q193.2626435279846,83.805096244812 192.1845185279846,83.805096244812 L190.1688935279846,83.805096244812 L189.2626435279846,87.789471244812 L190.5126435279846,87.789471244812 Q191.3095185279846,87.789471244812 191.6845185279846,87.617596244812 Q192.0595185279846,87.445721244812 192.3251435279846,87.070721244812 Q192.5907685279846,86.680096244812 192.7313935279846,85.945721244812 L193.4970185279846,85.945721244812 L192.4970185279846,90.383221244812 L191.7313935279846,90.383221244812 Q191.8407685279846,89.789471244812 191.8407685279846,89.555096244812 Q191.8407685279846,89.242596244812 191.6688935279846,89.008221244812 Q191.5126435279846,88.758221244812 191.2470185279846,88.648846244812 Q190.9970185279846,88.539471244812 190.2938935279846,88.539471244812 L189.0907685279846,88.539471244812 L188.2001435279846,92.461346244812 L188.1532685279846,92.742596244812 Q188.1532685279846,92.883221244812 188.2782685279846,92.961346244812 Q188.3563935279846,92.992596244812 188.7626435279846,92.992596244812 L190.4970185279846,92.992596244812 Q191.7782685279846,92.992596244812 192.5751435279846,92.726971244812 Q193.3876435279846,92.445721244812 193.9501435279846,91.930096244812 Q194.5126435279846,91.398846244812 195.2470185279846,90.101971244812 L195.9345185279846,90.383221244812 L194.2782685279846,93.820721244812 L185.0907685279846,93.820721244812 L185.2470185279846,93.164471244812 Q186.0438935279846,93.164471244812 186.2626435279846,93.086346244812 Q186.4970185279846,93.008221244812 186.6220185279846,92.836346244812 Q186.8251435279846,92.555096244812 186.9345185279846,92.023846244812 L188.5907685279846,84.773846244812 Q188.6845185279846,84.383221244812 188.6845185279846,84.226971244812 Q188.6845185279846,83.851971244812 188.4501435279846,83.711346244812 Q188.2157685279846,83.570721244812 187.6688935279846,83.570721244812 L187.4188935279846,83.570721244812 L187.5595185279846,82.914471244812 " stroke-width="0" id="svg_6"/>
</g><g id="PathID_16" opacity="1">
</g><g id="PathID_13" opacity="1" class="">
<path style="fill:#FF6C08;fill-opacity:1" d="M200.40951852798463,82.914471244812 L205.83139352798463,82.914471244812 Q207.23764352798463,82.914471244812 207.92514352798463,83.211346244812 Q208.62826852798463,83.492596244812 209.01889352798463,84.070721244812 Q209.40951852798463,84.633221244812 209.40951852798463,85.383221244812 Q209.40951852798463,86.273846244812 208.86264352798463,87.039471244812 Q208.31576852798463,87.805096244812 207.42514352798463,88.195721244812 Q206.55014352798463,88.570721244812 204.67514352798463,88.617596244812 L206.84701852798463,92.226971244812 Q207.01889352798463,92.523846244812 207.30014352798463,92.820721244812 Q207.47201852798463,93.023846244812 207.72201852798463,93.101971244812 Q207.98764352798463,93.180096244812 208.55014352798463,93.164471244812 L208.40951852798463,93.820721244812 L206.20639352798463,93.820721244812 L203.22201852798463,88.617596244812 L201.94076852798463,88.617596244812 L201.14389352798463,92.164471244812 Q201.08139352798463,92.430096244812 201.08139352798463,92.601971244812 Q201.08139352798463,92.789471244812 201.20639352798463,92.945721244812 Q201.33139352798463,93.101971244812 201.50326852798463,93.133221244812 Q201.62826852798463,93.164471244812 202.36264352798463,93.164471244812 L202.20639352798463,93.820721244812 L197.94076852798463,93.820721244812 L198.09701852798463,93.164471244812 L198.33139352798463,93.164471244812 Q198.92514352798463,93.164471244812 199.15951852798463,93.070721244812 Q199.39389352798463,92.976971244812 199.53451852798463,92.773846244812 Q199.67514352798463,92.570721244812 199.80014352798463,91.976971244812 L201.42514352798463,84.851971244812 Q201.51889352798463,84.430096244812 201.51889352798463,84.195721244812 Q201.51889352798463,83.851971244812 201.28451852798463,83.711346244812 Q201.06576852798463,83.570721244812 200.53451852798463,83.570721244812 L200.25326852798463,83.570721244812 L200.40951852798463,82.914471244812 M203.03451852798463,83.789471244812 L202.09701852798463,87.867596244812 L204.23764352798463,87.867596244812 Q205.76889352798463,87.867596244812 206.39389352798463,87.617596244812 Q207.01889352798463,87.367596244812 207.42514352798463,86.773846244812 Q207.83139352798463,86.180096244812 207.83139352798463,85.430096244812 Q207.83139352798463,84.883221244812 207.56576852798463,84.523846244812 Q207.31576852798463,84.148846244812 206.83139352798463,83.976971244812 Q206.36264352798463,83.789471244812 205.25326852798463,83.789471244812 L203.03451852798463,83.789471244812 " stroke-width="0" id="svg_7"/>
</g><g id="PathID_18" opacity="1">
</g><g id="PathID_15" opacity="1" class="">
<path style="fill:#FF6C08;fill-opacity:1" d="M213.59389352798462,82.914471244812 L218.18764352798462,82.914471244812 Q219.53139352798462,82.914471244812 220.21889352798462,83.226971244812 Q220.92201852798462,83.539471244812 221.31264352798462,84.148846244812 Q221.71889352798462,84.742596244812 221.71889352798462,85.555096244812 Q221.71889352798462,86.570721244812 221.12514352798462,87.461346244812 Q220.53139352798462,88.336346244812 219.50014352798462,88.789471244812 Q218.60951852798462,89.164471244812 216.60951852798462,89.164471244812 L215.00014352798462,89.164471244812 L214.32826852798462,92.117596244812 Q214.25014352798462,92.430096244812 214.25014352798462,92.617596244812 Q214.25014352798462,92.805096244812 214.34389352798462,92.930096244812 Q214.45326852798462,93.055096244812 214.60951852798462,93.117596244812 Q214.78139352798462,93.164471244812 215.21889352798462,93.164471244812 L215.51576852798462,93.164471244812 L215.37514352798462,93.820721244812 L211.10951852798462,93.820721244812 L211.25014352798462,93.164471244812 L211.59389352798462,93.164471244812 Q212.25014352798462,93.164471244812 212.51576852798462,92.945721244812 Q212.79701852798462,92.711346244812 212.95326852798462,92.023846244812 L214.59389352798462,84.805096244812 Q214.70326852798462,84.367596244812 214.70326852798462,84.226971244812 Q214.70326852798462,83.976971244812 214.57826852798462,83.820721244812 Q214.46889352798462,83.664471244812 214.29701852798462,83.617596244812 Q214.15639352798462,83.570721244812 213.43764352798462,83.570721244812 L213.59389352798462,82.914471244812 M216.23451852798462,83.789471244812 L215.18764352798462,88.351971244812 L216.37514352798462,88.351971244812 Q217.81264352798462,88.351971244812 218.32826852798462,88.195721244812 Q219.10951852798462,87.961346244812 219.64076852798462,87.242596244812 Q220.17201852798462,86.523846244812 220.17201852798462,85.601971244812 Q220.17201852798462,84.930096244812 219.82826852798462,84.492596244812 Q219.48451852798462,84.055096244812 218.93764352798462,83.898846244812 Q218.57826852798462,83.789471244812 217.56264352798462,83.789471244812 L216.23451852798462,83.789471244812 " stroke-width="0" id="svg_8"/>
</g><g id="PathID_20" opacity="1">
</g><g id="PathID_17" opacity="1" class="">
<path style="fill:#FF6C08;fill-opacity:1" d="M225.20951852798464,82.914471244812 L230.63139352798464,82.914471244812 Q232.03764352798464,82.914471244812 232.72514352798464,83.211346244812 Q233.42826852798464,83.492596244812 233.81889352798464,84.070721244812 Q234.20951852798464,84.633221244812 234.20951852798464,85.383221244812 Q234.20951852798464,86.273846244812 233.66264352798464,87.039471244812 Q233.11576852798464,87.805096244812 232.22514352798464,88.195721244812 Q231.35014352798464,88.570721244812 229.47514352798464,88.617596244812 L231.64701852798464,92.226971244812 Q231.81889352798464,92.523846244812 232.10014352798464,92.820721244812 Q232.27201852798464,93.023846244812 232.52201852798464,93.101971244812 Q232.78764352798464,93.180096244812 233.35014352798464,93.164471244812 L233.20951852798464,93.820721244812 L231.00639352798464,93.820721244812 L228.02201852798464,88.617596244812 L226.74076852798464,88.617596244812 L225.94389352798464,92.164471244812 Q225.88139352798464,92.430096244812 225.88139352798464,92.601971244812 Q225.88139352798464,92.789471244812 226.00639352798464,92.945721244812 Q226.13139352798464,93.101971244812 226.30326852798464,93.133221244812 Q226.42826852798464,93.164471244812 227.16264352798464,93.164471244812 L227.00639352798464,93.820721244812 L222.74076852798464,93.820721244812 L222.89701852798464,93.164471244812 L223.13139352798464,93.164471244812 Q223.72514352798464,93.164471244812 223.95951852798464,93.070721244812 Q224.19389352798464,92.976971244812 224.33451852798464,92.773846244812 Q224.47514352798464,92.570721244812 224.60014352798464,91.976971244812 L226.22514352798464,84.851971244812 Q226.31889352798464,84.430096244812 226.31889352798464,84.195721244812 Q226.31889352798464,83.851971244812 226.08451852798464,83.711346244812 Q225.86576852798464,83.570721244812 225.33451852798464,83.570721244812 L225.05326852798464,83.570721244812 L225.20951852798464,82.914471244812 M227.83451852798464,83.789471244812 L226.89701852798464,87.867596244812 L229.03764352798464,87.867596244812 Q230.56889352798464,87.867596244812 231.19389352798464,87.617596244812 Q231.81889352798464,87.367596244812 232.22514352798464,86.773846244812 Q232.63139352798464,86.180096244812 232.63139352798464,85.430096244812 Q232.63139352798464,84.883221244812 232.36576852798464,84.523846244812 Q232.11576852798464,84.148846244812 231.63139352798464,83.976971244812 Q231.16264352798464,83.789471244812 230.05326852798464,83.789471244812 L227.83451852798464,83.789471244812 " stroke-width="0" id="svg_9"/>
</g><g id="PathID_22" opacity="1">
</g><g id="PathID_19" opacity="1" class="">
<path style="fill:#FF6C08;fill-opacity:1" d="M238.17514352798463,82.914471244812 L242.45639352798463,82.914471244812 L242.31576852798463,83.570721244812 L242.06576852798463,83.570721244812 Q241.47201852798463,83.570721244812 241.23764352798463,83.680096244812 Q241.00326852798463,83.789471244812 240.86264352798463,84.023846244812 Q240.72201852798463,84.258221244812 240.58139352798463,84.914471244812 L238.95639352798463,91.992596244812 Q238.84701852798463,92.461346244812 238.84701852798463,92.633221244812 Q238.84701852798463,92.898846244812 239.09701852798463,93.070721244812 Q239.26889352798463,93.164471244812 239.76889352798463,93.164471244812 L240.14389352798463,93.164471244812 L239.97201852798463,93.820721244812 L235.70639352798463,93.820721244812 L235.84701852798463,93.164471244812 L236.15951852798463,93.164471244812 Q236.69076852798463,93.164471244812 236.92514352798463,93.070721244812 Q237.15951852798463,92.961346244812 237.30014352798463,92.758221244812 Q237.44076852798463,92.555096244812 237.56576852798463,91.992596244812 L239.22201852798463,84.742596244812 Q239.30014352798463,84.367596244812 239.30014352798463,84.195721244812 Q239.30014352798463,83.976971244812 239.20639352798463,83.836346244812 Q239.11264352798463,83.695721244812 238.94076852798463,83.633221244812 Q238.76889352798463,83.570721244812 238.31576852798463,83.570721244812 L238.03451852798463,83.570721244812 L238.17514352798463,82.914471244812 " stroke-width="0" id="svg_10"/>
</g><g id="PathID_24" opacity="1">
</g><g id="PathID_21" opacity="1" class="">
<path style="fill:#FF6C08;fill-opacity:1" d="M252.9626435279846,82.914471244812 L253.5407685279846,82.914471244812 L253.5876435279846,86.367596244812 L252.8220185279846,86.367596244812 Q252.5251435279846,85.211346244812 251.6188935279846,84.398846244812 Q250.7126435279846,83.586346244812 249.3532685279846,83.586346244812 Q248.6032685279846,83.586346244812 247.9938935279846,83.867596244812 Q247.3845185279846,84.133221244812 247.0720185279846,84.586346244812 Q246.7751435279846,85.023846244812 246.7751435279846,85.445721244812 Q246.7751435279846,85.820721244812 246.9626435279846,86.148846244812 Q247.1657685279846,86.476971244812 247.6345185279846,86.773846244812 Q248.1188935279846,87.070721244812 249.2907685279846,87.476971244812 Q251.0251435279846,88.086346244812 251.6501435279846,88.508221244812 Q252.2907685279846,88.930096244812 252.6032685279846,89.476971244812 Q252.9313935279846,90.008221244812 252.9313935279846,90.617596244812 Q252.9313935279846,91.461346244812 252.3845185279846,92.273846244812 Q251.8376435279846,93.070721244812 250.8688935279846,93.539471244812 Q249.9001435279846,94.008221244812 248.6032685279846,94.008221244812 Q247.5720185279846,94.008221244812 246.7907685279846,93.726971244812 Q246.0251435279846,93.430096244812 245.1970185279846,92.695721244812 L244.5407685279846,93.820721244812 L244.0251435279846,93.820721244812 L244.1970185279846,89.820721244812 L244.9313935279846,89.820721244812 Q245.2126435279846,91.398846244812 246.1970185279846,92.273846244812 Q247.1813935279846,93.148846244812 248.5876435279846,93.148846244812 Q249.8845185279846,93.148846244812 250.7907685279846,92.430096244812 Q251.5407685279846,91.836346244812 251.5407685279846,90.976971244812 Q251.5407685279846,90.445721244812 251.2438935279846,90.055096244812 Q250.9470185279846,89.648846244812 250.2282685279846,89.289471244812 Q249.8220185279846,89.101971244812 248.2751435279846,88.555096244812 Q246.8220185279846,88.023846244812 246.2595185279846,87.476971244812 Q245.4782685279846,86.680096244812 245.4782685279846,85.695721244812 Q245.4782685279846,84.976971244812 245.9470185279846,84.289471244812 Q246.4313935279846,83.601971244812 247.3532685279846,83.164471244812 Q248.2907685279846,82.726971244812 249.4470185279846,82.726971244812 Q250.3220185279846,82.726971244812 251.0251435279846,82.976971244812 Q251.7282685279846,83.226971244812 252.4313935279846,83.773846244812 L252.9626435279846,82.914471244812 " stroke-width="0" id="svg_11"/>
</g><g id="PathID_26" opacity="1">
</g><g id="PathID_23" opacity="1" class="">
<path style="fill:#FF6C08;fill-opacity:1" d="M257.7595185279846,82.914471244812 L265.6032685279846,82.914471244812 L266.5095185279846,85.805096244812 L265.7907685279846,86.023846244812 Q265.4626435279846,85.148846244812 265.0407685279846,84.695721244812 Q264.6345185279846,84.226971244812 264.1345185279846,84.039471244812 Q263.4626435279846,83.805096244812 262.3845185279846,83.805096244812 L260.3688935279846,83.805096244812 L259.4626435279846,87.789471244812 L260.7126435279846,87.789471244812 Q261.5095185279846,87.789471244812 261.8845185279846,87.617596244812 Q262.2595185279846,87.445721244812 262.5251435279846,87.070721244812 Q262.7907685279846,86.680096244812 262.9313935279846,85.945721244812 L263.6970185279846,85.945721244812 L262.6970185279846,90.383221244812 L261.9313935279846,90.383221244812 Q262.0407685279846,89.789471244812 262.0407685279846,89.555096244812 Q262.0407685279846,89.242596244812 261.8688935279846,89.008221244812 Q261.7126435279846,88.758221244812 261.4470185279846,88.648846244812 Q261.1970185279846,88.539471244812 260.4938935279846,88.539471244812 L259.2907685279846,88.539471244812 L258.4001435279846,92.461346244812 L258.3532685279846,92.742596244812 Q258.3532685279846,92.883221244812 258.4782685279846,92.961346244812 Q258.5563935279846,92.992596244812 258.9626435279846,92.992596244812 L260.6970185279846,92.992596244812 Q261.9782685279846,92.992596244812 262.7751435279846,92.726971244812 Q263.5876435279846,92.445721244812 264.1501435279846,91.930096244812 Q264.7126435279846,91.398846244812 265.4470185279846,90.101971244812 L266.1345185279846,90.383221244812 L264.4782685279846,93.820721244812 L255.2907685279846,93.820721244812 L255.4470185279846,93.164471244812 Q256.2438935279846,93.164471244812 256.4626435279846,93.086346244812 Q256.6970185279846,93.008221244812 256.8220185279846,92.836346244812 Q257.0251435279846,92.555096244812 257.1345185279846,92.023846244812 L258.7907685279846,84.773846244812 Q258.8845185279846,84.383221244812 258.8845185279846,84.226971244812 Q258.8845185279846,83.851971244812 258.6501435279846,83.711346244812 Q258.4157685279846,83.570721244812 257.8688935279846,83.570721244812 L257.6188935279846,83.570721244812 L257.7595185279846,82.914471244812 " stroke-width="0" id="svg_12"/>
</g><g id="PathID_28" opacity="1">
</g><g id="PathID_25" opacity="1" class="">
<path style="fill:#FF6C08;fill-opacity:1" d="M278.0626435279846,82.914471244812 L278.6407685279846,82.914471244812 L278.6876435279846,86.367596244812 L277.9220185279846,86.367596244812 Q277.6251435279846,85.211346244812 276.7188935279846,84.398846244812 Q275.8126435279846,83.586346244812 274.4532685279846,83.586346244812 Q273.7032685279846,83.586346244812 273.0938935279846,83.867596244812 Q272.4845185279846,84.133221244812 272.1720185279846,84.586346244812 Q271.8751435279846,85.023846244812 271.8751435279846,85.445721244812 Q271.8751435279846,85.820721244812 272.0626435279846,86.148846244812 Q272.2657685279846,86.476971244812 272.7345185279846,86.773846244812 Q273.2188935279846,87.070721244812 274.3907685279846,87.476971244812 Q276.1251435279846,88.086346244812 276.7501435279846,88.508221244812 Q277.3907685279846,88.930096244812 277.7032685279846,89.476971244812 Q278.0313935279846,90.008221244812 278.0313935279846,90.617596244812 Q278.0313935279846,91.461346244812 277.4845185279846,92.273846244812 Q276.9376435279846,93.070721244812 275.9688935279846,93.539471244812 Q275.0001435279846,94.008221244812 273.7032685279846,94.008221244812 Q272.6720185279846,94.008221244812 271.8907685279846,93.726971244812 Q271.1251435279846,93.430096244812 270.2970185279846,92.695721244812 L269.6407685279846,93.820721244812 L269.1251435279846,93.820721244812 L269.2970185279846,89.820721244812 L270.0313935279846,89.820721244812 Q270.3126435279846,91.398846244812 271.2970185279846,92.273846244812 Q272.2813935279846,93.148846244812 273.6876435279846,93.148846244812 Q274.9845185279846,93.148846244812 275.8907685279846,92.430096244812 Q276.6407685279846,91.836346244812 276.6407685279846,90.976971244812 Q276.6407685279846,90.445721244812 276.3438935279846,90.055096244812 Q276.0470185279846,89.648846244812 275.3282685279846,89.289471244812 Q274.9220185279846,89.101971244812 273.3751435279846,88.555096244812 Q271.9220185279846,88.023846244812 271.3595185279846,87.476971244812 Q270.5782685279846,86.680096244812 270.5782685279846,85.695721244812 Q270.5782685279846,84.976971244812 271.0470185279846,84.289471244812 Q271.5313935279846,83.601971244812 272.4532685279846,83.164471244812 Q273.3907685279846,82.726971244812 274.5470185279846,82.726971244812 Q275.4220185279846,82.726971244812 276.1251435279846,82.976971244812 Q276.8282685279846,83.226971244812 277.5313935279846,83.773846244812 L278.0626435279846,82.914471244812 " stroke-width="0" id="svg_13"/>
</g><g id="PathID_30" opacity="1">
</g><g id="PathID_27" opacity="1" class="">
<path style="fill:#FF6C08;fill-opacity:1" d="M140.6495775642137,58.045345158133244 L141.58903161421375,58.04534532239251 L141.66520258309748,63.65667898571084 L140.42106073309753,63.65667876817827 Q139.93863871161602,61.7777705838289 138.4659812424669,60.45745652634139 Q136.99332377331783,59.13714246885388 134.7843372233178,59.1371420826226 Q133.56558602331782,59.13714186952947 132.5753505934079,59.59417339639131 Q131.58511516793743,60.02581427325316 131.07730203919365,60.762143034464344 Q130.59487956488934,61.47308115011498 130.59487944502445,62.158628700115 Q130.5948793384779,62.768004300114995 130.89956704524965,63.30120800338827 Q131.22964540202142,63.834411711100984 131.99136481767206,64.31683419428418 Q132.7784748833227,64.79925668190683 134.68277351789726,65.45941391486483 Q137.5011354947591,66.44964975764267 138.51676137489426,67.13519748522026 Q139.55777790502935,67.82074521723732 140.06559074964895,68.70941805602612 Q140.59879424870797,69.57270024925435 140.5987940755698,70.56293559925436 Q140.59879383584007,71.93403069925435 139.7101208549892,73.25434434387395 Q138.82144787857771,74.54926733849356 137.24722744539454,75.31098656324826 Q135.67300701221134,76.07270578800299 133.56558306221135,76.07270541952948 Q131.88980016221134,76.07270512652644 130.62026774212126,75.61567320455444 Q129.37612597647063,75.13325063702186 128.0304217351243,73.93988985173155 L126.96401411548462,75.76801646527508 L126.12612266548462,75.76801631877356 L126.40542095198126,69.26800996760738 L127.59878150198125,69.26801017626107 Q128.05581275359782,71.832465906171 129.65542345498918,73.25434258585571 Q131.25503415638053,74.67621926554042 133.54019265638053,74.67621966509003 Q135.64761660638052,74.67622003356354 137.12027451059478,73.50825039105106 Q138.3390258792935,72.54340590414418 138.3390261234627,71.1469201541442 Q138.33902627440364,70.28363805414418 137.85660403538964,69.64887171979484 Q137.3741818008151,68.98871473544548 136.20621200292223,68.40472958123124 Q135.5460551561955,68.1000416658058 133.0323809615759,67.21136847630123 Q130.67105066251685,66.3480859634333 129.75698741789725,65.45941305361347 Q128.4874551443087,64.16448968164147 128.48745542399342,62.56487873164147 Q128.48745562820767,61.39690883164147 129.24917532354303,60.27972036482467 Q130.03628566887838,59.16253190244731 131.5343341431827,58.45159396437427 Q133.05777326748702,57.740656030740666 134.936681367487,57.74065635925922 Q136.358557767487,57.74065660786786 137.50113694645597,58.14690720764267 Q138.64371612542493,58.55315780741748 139.7862952200445,59.441830757192264 L140.6495775642137,58.045345158133244 " stroke-width="0" id="svg_14"/>
</g><g id="PathID_32" opacity="1">
</g><g id="PathID_29" opacity="1" class="">
<path style="fill:#FF6C08;fill-opacity:1" d="M146.38455709429186,58.946244834953944 L153.36698584429186,58.946246055799946 L153.1130791578354,60.01265331140556 L152.55448485783538,60.01265321373788 Q151.6404214578354,60.01265305391803 151.2849523267593,60.19038754176586 Q150.95487385012268,60.34273138405314 150.75174858353108,60.72359109853761 Q150.4724513491817,61.20601339970378 150.26932597604355,62.19624871418827 L149.20291785474714,66.8935187777318 L158.72441160474716,66.89352044252178 L159.86699172931682,61.891562592296594 Q160.04472641693945,61.104452473372675 160.04472644801555,60.92671792337268 Q160.0447264968494,60.64742077337266 159.8416013412438,60.39351423785715 Q159.63847618563818,60.139607702341635 159.3337883989565,60.06343569906835 Q159.1560538578354,60.01265436799227 157.9373026578354,60.01265415489914 L158.21659999429187,58.946246903733 L165.19902874429187,58.94624812457897 L164.94512205783542,60.01265538018458 L164.3357464578354,60.01265527363802 Q163.5232456578354,60.01265513157594 163.1423858767593,60.190389614984355 Q162.76152609568322,60.36812409839274 162.53301018797052,60.69820250843779 Q162.32988493025778,61.02828092292228 162.10136890268018,62.04390688296729 L159.40995794278,73.82516801238665 Q159.30839525399122,74.33298099462891 159.30839520515738,74.6122781446289 Q159.30839511192914,75.14548179462889 159.7146454630953,75.42477901565994 Q159.96855193201924,75.60251361005433 160.85722468201922,75.60251376543474 L161.41581898201923,75.60251386310242 L161.16191229556276,76.66892111870803 L154.15409289556274,76.66891989342258 L154.40799958201922,75.60251263781697 L154.86503128201923,75.60251271772691 Q155.62675078201923,75.6025128509101 155.93143859533754,75.52634095418338 Q156.23612640865588,75.45016905745666 156.46464228973196,75.27243454741162 Q156.69315817524748,75.06930938736659 156.84550212852076,74.76462161400323 Q157.02323673179404,74.45993384507929 157.15019009278004,73.82516761727649 L158.4197235650174,68.26461548924851 L148.87283916501738,68.26461382001906 L147.6286963516589,73.7743846524865 Q147.47635234511236,74.38376022584987 147.47635228739964,74.71383867584987 Q147.4763522385658,74.99313582584986 147.65408674861084,75.22165170692594 Q147.85721190865587,75.45016759244146 148.21268099089812,75.55173025459362 Q148.44119683201922,75.60251159454859 149.55838543201924,75.60251178988395 L149.32986939556275,76.66891904992897 L142.32204999556274,76.66891782464356 L142.60134733201923,75.60251057347739 L143.00759773201924,75.60251064450841 Q143.76931723201923,75.60251077769163 144.09939569533756,75.52633888540436 Q144.4294741630953,75.42477634311706 144.65799004417138,75.24704183307202 Q144.8865059296869,75.04391667302698 145.01345921964187,74.81540084522419 Q145.2165844995518,74.35836918073971 145.39431917829555,73.62204036181578 L148.0349488026802,62.043904423517546 Q148.18729283142395,61.307575600154195 148.18729288913667,60.97749715015419 Q148.1872929379705,60.69820000015417 148.0349490823649,60.44429347351755 Q147.8826052267593,60.19038694688089 147.62869874007762,60.11421495248652 Q147.4001829078354,60.01265231253154 146.66385405783538,60.01265218378779 L146.1052597578354,60.01265208612011 L146.38455709429186,58.946244834953944 " stroke-width="0" id="svg_15"/>
</g><g id="PathID_34" opacity="1">
</g><g id="PathID_31" opacity="1" class="">
<path style="fill:#FF6C08;fill-opacity:1" d="M170.93636068315902,58.946244834953944 L179.74691623315903,58.946246375439614 Q182.03207473315905,58.94624677498922 183.1492632488097,59.42866932032459 Q184.29184241889976,59.88570122009938 184.92660850464046,60.82515538108538 Q185.56137459482062,61.73921889207139 185.5613743817275,62.95797009207138 Q185.5613741286794,64.40523714207137 184.67270116114685,65.64937883669097 Q183.7840281936143,66.89352053131057 182.33676103262832,67.5282865282625 Q180.91488452608172,68.13766187965388 177.86800651276343,68.21383329692105 L181.39730583725282,74.07907406400324 Q181.67660290290343,74.56149646283706 182.13363451855406,75.04391889274697 Q182.41293161084133,75.37399739158082 182.81918198864412,75.50095071261185 Q183.25082301644693,75.62790403808233 184.16488642088638,75.60251354790219 L183.9363703844299,76.66892080794722 L180.35628873442988,76.66892018198618 L175.5066760627634,68.21383288405315 L173.42464276276343,68.21383252001905 L172.12971860501057,73.97750984360763 Q172.02815592954005,74.40915087584986 172.0281558807062,74.68844802584985 Q172.02815582743295,74.99313582584986 172.23128098303857,75.24704236136537 Q172.43440613864414,75.50094889688091 172.71370327976524,75.55173024571474 Q172.9168284708864,75.60251158123026 174.11018902088637,75.60251178988395 L173.85628233442992,76.66891904548953 L166.9246348844299,76.66891783352241 L167.1785415708864,75.60251057791683 L167.55940132088637,75.60251064450841 Q168.52424602088638,75.60251081320715 168.90510579752305,75.45016697979875 Q169.28596557415966,75.29782314639036 169.5144814818724,74.96774473634531 Q169.74299738958513,74.63766632630026 169.94612275828382,73.67282166181579 L172.58675238266846,62.09468572351756 Q172.73909640253333,61.40913820015419 172.73909646912495,61.028278450154176 Q172.73909656679263,60.469684150154194 172.35823685674757,60.241168233562576 Q172.00276779670253,60.01265232141043 171.13948569670254,60.012652170469465 L170.68245399670252,60.012652090559556 L170.93636068315902,58.946244834953944 M175.2019896345504,60.368121980779875 L173.67854947585653,66.99508136441347 L177.15706852585657,66.99508197261673 Q179.64535222585653,66.99508240768188 180.6609782968876,66.58883218525946 Q181.67660436791863,66.18258196283708 182.33676143661734,65.21773737826251 Q182.99691850531605,64.25289279368796 182.99691871840918,63.034141593687934 Q182.99691887378958,62.14546884368795 182.56527792589668,61.561483818217454 Q182.15902763244327,60.952108147186436 181.37191753127712,60.67281085956378 Q180.6101980845504,60.36812292638058 178.80746193455036,60.368122611180354 L175.2019896345504,60.368121980779875 " stroke-width="0" id="svg_16"/>
</g><g id="PathID_36" opacity="1">
</g><g id="PathID_33" opacity="1" class="">
<path style="fill:#FF6C08;fill-opacity:1" d="M191.65640272759265,58.94624476836236 L198.61344082759268,58.94624598476889 L198.3849247911362,60.01265324481395 L197.97867439113617,60.012653173782894 Q197.0138296911362,60.01265300508419 196.63296991006013,60.190387488492576 Q196.25211012898404,60.36812197190099 196.02359421239242,60.74898168194602 Q195.7950782958008,61.12984139199108 195.56656225934432,62.196248652036104 L192.92593264827804,73.69821264033433 Q192.74819796509485,74.45993210925826 192.748197916261,74.73922925925825 Q192.7481978407905,75.17087030925828 193.15444819195665,75.45016753028929 Q193.43374531532004,75.60251147912314 194.24624611532005,75.60251162118522 L194.85562171532,75.60251172773178 L194.57632437886355,76.66891897889795 L187.64467692886353,76.66891776693083 L187.87319296532002,75.60251050688578 L188.38100596532,75.60251059567457 Q189.24428806532,75.60251074661554 189.62514784195668,75.45016691320714 Q190.00600762303276,75.27243242979876 190.2345235307455,74.94235401975371 Q190.46303943845817,74.61227560970866 190.66616479827803,73.6982122452242 L193.3575757581782,61.916951115804835 Q193.48452911472475,61.30757553800203 193.4845291635586,61.028278388002036 Q193.48452922571073,60.672809288002014 193.33218536566568,60.44429341136538 Q193.1798415056207,60.215777534728744 192.9005443733784,60.11421488589491 Q192.6212472411362,60.012652237061076 191.88491839113618,60.0126521083173 L191.42788669113617,60.01265202840739 L191.65640272759265,58.94624476836236 " stroke-width="0" id="svg_17"/>
</g><g id="PathID_38" opacity="1">
</g><g id="PathID_35" opacity="1" class="">
<path style="fill:#FF6C08;fill-opacity:1" d="M203.2381642720262,58.946244834953944 L212.04871982202621,58.946246375439614 Q214.33387832202624,58.94624677498922 215.45106683767688,59.42866932032459 Q216.59364600776695,59.88570122009938 217.22841209350764,60.82515538108538 Q217.8631781836878,61.73921889207139 217.86317797059468,62.95797009207138 Q217.8631777175466,64.40523714207137 216.97450475001403,65.64937883669097 Q216.08583178248148,66.89352053131057 214.6385646214955,67.5282865282625 Q213.2166881149489,68.13766187965388 210.16981010163062,68.21383329692105 L213.69910942612,74.07907406400324 Q213.9784064917706,74.56149646283706 214.43543810742125,75.04391889274697 Q214.7147351997085,75.37399739158082 215.1209855775113,75.50095071261185 Q215.55262660531412,75.62790403808233 216.46669000975356,75.60251354790219 L216.23817397329708,76.66892080794722 L212.65809232329707,76.66892018198618 L207.8084796516306,68.21383288405315 L205.7264463516306,68.21383252001905 L204.43152219387775,73.97750984360763 Q204.32995951840724,74.40915087584986 204.3299594695734,74.68844802584985 Q204.32995941630014,74.99313582584986 204.53308457190576,75.24704236136537 Q204.73620972751132,75.50094889688091 205.01550686863243,75.55173024571474 Q205.2186320597536,75.60251158123026 206.41199260975355,75.60251178988395 L206.1580859232971,76.66891904548953 L199.2264384732971,76.66891783352241 L199.4803451597536,75.60251057791683 L199.86120490975355,75.60251064450841 Q200.82604960975357,75.60251081320715 201.20690938639024,75.45016697979875 Q201.58776916302685,75.29782314639036 201.81628507073958,74.96774473634531 Q202.04480097845232,74.63766632630026 202.247926347151,73.67282166181579 L204.88855597153565,62.09468572351756 Q205.04089999140052,61.40913820015419 205.04090005799213,61.028278450154176 Q205.0409001556598,60.469684150154194 204.66004044561475,60.241168233562576 Q204.30457138556972,60.01265232141043 203.44128928556972,60.012652170469465 L202.9842575855697,60.012652090559556 L203.2381642720262,58.946244834953944 M207.50379322341757,60.368121980779875 L205.98035306472372,66.99508136441347 L209.45887211472376,66.99508197261673 Q211.94715581472371,66.99508240768188 212.9627818857548,66.58883218525946 Q213.97840795678582,66.18258196283708 214.63856502548452,65.21773737826251 Q215.29872209418323,64.25289279368796 215.29872230727636,63.034141593687934 Q215.29872246265677,62.14546884368795 214.86708151476387,61.561483818217454 Q214.46083122131046,60.952108147186436 213.6737211201443,60.67281085956378 Q212.9120016734176,60.36812292638058 211.10926552341755,60.368122611180354 L207.50379322341757,60.368121980779875 " stroke-width="0" id="svg_18"/>
</g><g id="PathID_40" opacity="1">
</g><g id="PathID_37" opacity="1" class="">
<path style="fill:#FF6C08;fill-opacity:1" d="M231.91770499619616,58.94624779066601 L234.0759102461962,58.9462481680184 L236.66575395356324,73.77438822084127 Q236.8434883437434,74.68845165191738 237.0212228360307,75.01853013299345 Q237.22434797831795,75.34860861850896 237.50364510612076,75.47556191734282 Q237.78294223392356,75.60251521617664 238.62083368392354,75.60251536267816 L238.39231764746705,76.66892262272322 L231.91770189746705,76.66892149066601 L232.19699923392352,75.60251423949984 L232.90793743392356,75.60251436380418 Q233.77121953392356,75.60251451474514 234.10129803275737,75.32321742245784 Q234.4567671815912,75.04392033461002 234.45676727038,74.53610733461 L234.380595471321,73.67282522129167 L233.771220497282,70.09274346474513 L226.99191694728205,70.09274227941464 L224.7067577458505,74.10446457986504 Q224.42746051150112,74.5868868810312 224.42746044934898,74.9423559810312 Q224.42746039163626,75.2724344310312 224.68136686056016,75.4501690254256 Q224.93527333392353,75.60251296982 225.77316478392356,75.60251311632152 L226.38254038392353,75.60251322286808 L226.12863369746708,76.6689204784737 L220.21261224746706,76.66891944408417 L220.46651893392357,75.60251218847856 Q221.32980103392356,75.60251233941952 221.68527015612074,75.4755591515717 Q222.0407392827574,75.32321531372384 222.32003648159122,75.04391821255768 Q222.59933368486452,74.73923046139151 223.23410012132098,73.67282327237751 L231.91770499619616,58.94624779066601 M233.56809551481456,68.84860157922961 L232.24778309104096,60.97749984837873 L227.75363666481456,68.84860056259785 L233.56809551481456,68.84860157922961 " stroke-width="0" id="svg_19"/>
</g><g id="PathID_39" opacity="1" class="">
<path style="fill:#FF6C08;fill-opacity:1" d="M244.97070711645983,59.847146704858005 L250.53125946645986,59.84714767709539 L252.00391467593403,74.0913025845829 L259.92579996645986,59.847149319688185 L265.51174296645985,59.84715029636499 L265.25783628000335,60.91355755197057 L264.5722887300034,60.913557432105705 Q263.9375224800034,60.9135573211197 263.6074440078062,61.040510513406986 Q263.27736553560896,61.167463705694274 263.0488496412146,61.42137016573929 Q262.8457244012596,61.649885980223786 262.7187710713497,62.10691765802659 Q262.49025510592423,62.76707451807161 262.4394737570904,63.046371659192744 L259.72267211167474,75.03075798417265 Q259.646500103962,75.36083642085433 259.64650006844647,75.56396162085434 Q259.6464999796577,76.07177462085434 260.02735968526326,76.32568118744595 Q260.2812661541872,76.50341578184035 261.09376695418723,76.50341592390242 L261.7285332041872,76.50341603488843 L261.50001716773073,77.56982329493346 L254.51758841773074,77.56982207408745 L254.77149510418718,76.50341481848187 L255.33008940418722,76.50341491614955 Q256.1679808541872,76.50341506265104 256.4980593263844,76.37646187036378 Q256.85352845302106,76.22411803251595 257.10743501073375,75.89403962691034 Q257.3613415728859,75.53857057130475 257.48829493831136,74.87841369350193 L260.56056595897235,61.31980713067418 L251.4961010677307,77.5698215457941 L250.27734986773072,77.56982133270097 L248.62696048116953,61.19285179413737 L245.50390813831137,74.87841159808625 Q245.40234546284086,75.3100526303285 245.40234542732537,75.51317783032849 Q245.40234537849153,75.7924749803285 245.5546892296577,76.07177215696512 Q245.65625179414218,76.27489737472291 245.91015827194497,76.4018506691173 Q246.18945540418719,76.50341331795113 246.54492450418718,76.5034133801033 L247.5351598541872,76.50341355324144 L247.30664381773073,77.5698208132865 L240.98437196773074,77.56981970786595 L241.2636693041872,76.50341245669978 L241.9746075041872,76.50341258100408 Q242.91406155418719,76.50341274526338 243.3457026618999,76.17333437073387 Q243.7773437740521,75.81786534620434 244.0058598016297,74.8022393861593 L246.74805210592422,62.76707176561882 Q246.82422410919753,62.46238397893714 246.82422418910744,62.00535227893715 Q246.82422427789623,61.497539278937154 246.54492717673008,61.218242080103295 Q246.26563008000335,60.91355423126947 245.75781708000335,60.91355414248068 L245.47851993000336,60.91355409364684 L244.74219108000335,60.91355396490306 L244.97070711645983,59.847146704858005 " stroke-width="0" id="svg_20"/>
</g></g></svg>